<?xml version="1.0" encoding="UTF-8"?>
<svg id="Layer_2" data-name="Layer 2" xmlns="http://www.w3.org/2000/svg" xmlns:xlink="http://www.w3.org/1999/xlink" viewBox="0 0 210.28 210.28">
  <defs>
    <style>
      .cls-1 {
        fill: none;
      }

      .cls-2 {
        fill: #f8fffe;
      }

      .cls-3 {
        clip-path: url(#clippath);
      }
    </style>
    <clipPath id="clippath">
      <rect class="cls-1" width="210.28" height="210.28"/>
    </clipPath>
  </defs>
  <g id="Layer_1-2" data-name="Layer 1">
    <g class="cls-3">
      <g>
        <path class="cls-2" d="M162.2,154.83c-2.58,2.35-10.86,10-15.55,12.69-4.69,2.7-9.67,4.98-14.95,6.86-5.28,1.87-10.37,2.81-15.3,2.81-9.14,0-15.95-2.46-20.4-7.39-4.46-4.92-6.22-12.19-5.28-21.81l8.79-100.23c1.17-12.43.64-20.98-1.58-25.67-2.23-4.69-6.28-7.03-12.13-7.03-5.16,0-9.38,1.53-12.66,4.57-3.29,3.05-6.22,7.56-8.79,13.54-2.58,5.98-5.51,13.66-8.79,23.04L14.41,172.28H-14.43L-8.8,25.97c.23-5.15-.35-8.79-1.76-10.9-1.41-2.11-3.99-3.17-7.74-3.17-2.35,0-5.16.53-8.44,1.58-3.29,1.06-7.39,2.64-12.31,4.75L-45.02.64c2.58-1.41,6.15-3.04,10.73-4.92,4.57-1.87,9.5-3.46,14.77-4.75,5.28-1.29,10.25-1.93,14.95-1.93,10.08,0,17,3.05,20.75,9.14,3.75,6.1,5.04,15.01,3.87,26.73l-8.79,93.91,2.46.7,25.67-76.32c4.22-12.43,8.73-22.62,13.54-30.6,4.8-7.97,10.49-13.89,17.06-17.76,6.56-3.87,14.3-5.8,23.21-5.8,10.55,0,18.64,2.23,24.27,6.68,5.63,4.46,9.32,11.2,11.08,20.22,1.76,9.03,2.05,20.34.88,33.94l-7.74,90.74c-.47,5.63-.18,9.56.88,11.78,1.05,2.23,3.46,3.34,7.21,3.34,2.58,0,5.68-.76,9.32-2.29,3.63-1.52,7.09-3.57,10.38-6.16l12.73,7.53Z"/>
        <path class="cls-2" d="M169.04,207.7c9.14,0,16.71-1.76,22.68-5.28,5.98-3.52,8.97-8.79,8.97-15.83,0-4.69-1.35-8.62-4.04-11.78-2.7-3.17-6.68-6.03-11.96-8.62-5.28-2.58-11.9-5.15-19.87-7.74-10.08-3.75-19.82-7.79-29.19-12.13-9.38-4.34-16.94-10.14-22.68-17.41-5.75-7.26-8.62-17-8.62-29.19,0-7.03,1.41-14.01,4.22-20.93,2.81-6.91,7.39-13.24,13.72-18.99,6.33-5.74,14.6-10.37,24.79-13.89,10.2-3.52,22.56-5.28,37.1-5.28,11.02,0,21.28,1.47,30.77,4.4,9.5,2.94,17.23,7.21,23.21,12.84,5.98,5.63,8.97,12.78,8.97,21.45,0,6.1-2.06,10.96-6.15,14.59-4.11,3.64-9.09,5.45-14.95,5.45-4.92,0-9.73-.82-14.42-2.46-4.69-1.64-7.97-3.4-9.85-5.28l1.76-8.09c1.64-6.33.82-11.25-2.46-14.77-3.29-3.52-9.85-5.28-19.7-5.28-7.27,0-13.25,1-17.94,2.99-4.69,1.99-8.21,4.57-10.55,7.74-2.35,3.17-3.52,6.63-3.52,10.37,0,3.99,1.41,7.45,4.22,10.37,2.81,2.94,6.86,5.69,12.13,8.27,5.28,2.58,11.55,5.16,18.82,7.74,7.26,2.81,14.47,5.69,21.63,8.62,7.15,2.94,13.66,6.51,19.52,10.73,5.86,4.22,10.49,9.38,13.89,15.47,3.4,6.1,5.1,13.49,5.1,22.16,0,12.9-3.34,24.09-10.02,33.59-6.68,9.5-16.06,16.83-28.14,21.98-12.08,5.15-26.44,7.74-43.08,7.74-11.96,0-23.04-1.23-33.24-3.69-10.2-2.46-18.35-6.21-24.44-11.26-6.1-5.04-9.14-11.43-9.14-19.17s2.52-13.83,7.56-17.58c5.04-3.75,10.84-5.63,17.41-5.63,3.98,0,7.91.47,11.78,1.41,3.87.94,6.86,2,8.97,3.17v10.55c.23,6.33,2.05,11.02,5.45,14.07,3.4,3.05,10.49,4.57,21.28,4.57Z"/>
      </g>
    </g>
  </g>
</svg>